<svg width="18" height="22" viewBox="0 0 18 22" fill="none" xmlns="http://www.w3.org/2000/svg">
<g id="Group 3">
<path id="Vector" d="M10.8374 1.8125H3.4874C3.00007 1.8125 2.53269 2.00609 2.18809 2.35069C1.8435 2.69529 1.6499 3.16266 1.6499 3.65V18.35C1.6499 18.8373 1.8435 19.3047 2.18809 19.6493C2.53269 19.9939 3.00007 20.1875 3.4874 20.1875H14.5124C14.9997 20.1875 15.4671 19.9939 15.8117 19.6493C16.1563 19.3047 16.3499 18.8373 16.3499 18.35V7.325L10.8374 1.8125Z" stroke="black" stroke-width="2" stroke-linecap="round" stroke-linejoin="round"/>
<path id="Vector_2" d="M12.675 15.5938H5.32495" stroke="black" stroke-width="2" stroke-linecap="round" stroke-linejoin="round"/>
<path id="Vector_3" d="M12.675 11.9187H5.32495" stroke="black" stroke-width="2" stroke-linecap="round" stroke-linejoin="round"/>
<path id="Vector_4" d="M7.16245 8.24377H6.2437H5.32495" stroke="black" stroke-width="2" stroke-linecap="round" stroke-linejoin="round"/>
<path id="Vector_5" d="M10.8374 1.8125V7.325H16.3499" stroke="black" stroke-width="2" stroke-linecap="round" stroke-linejoin="round"/>
</g>
</svg>
