<svg width="24" height="24" viewBox="0 0 24 24" fill="none" xmlns="http://www.w3.org/2000/svg">
<g clip-path="url(#clip0_130_1111)">
<path d="M13.8374 2.8125H6.4874C6.00007 2.8125 5.53269 3.00609 5.18809 3.35069C4.8435 3.69529 4.6499 4.16266 4.6499 4.65V19.35C4.6499 19.8373 4.8435 20.3047 5.18809 20.6493C5.53269 20.9939 6.00007 21.1875 6.4874 21.1875H17.5124C17.9997 21.1875 18.4671 20.9939 18.8117 20.6493C19.1563 20.3047 19.3499 19.8373 19.3499 19.35V8.325L13.8374 2.8125Z" stroke="black" stroke-width="2" stroke-linecap="round" stroke-linejoin="round"/>
<path d="M15.675 16.5938H8.32495" stroke="black" stroke-width="2" stroke-linecap="round" stroke-linejoin="round"/>
<path d="M15.675 12.9187H8.32495" stroke="black" stroke-width="2" stroke-linecap="round" stroke-linejoin="round"/>
<path d="M10.1625 9.24377H9.2437H8.32495" stroke="black" stroke-width="2" stroke-linecap="round" stroke-linejoin="round"/>
<path d="M13.8374 2.8125V8.325H19.3499" stroke="black" stroke-width="2" stroke-linecap="round" stroke-linejoin="round"/>
</g>
<defs>
<clipPath id="clip0_130_1111">
<rect width="24" height="24" fill="white"/>
</clipPath>
</defs>
</svg>
