<svg width="12" height="13" viewBox="0 0 12 13" fill="none" xmlns="http://www.w3.org/2000/svg">
<g id="search">
<path id="Icon" d="M5 2.5C3.34315 2.5 2 3.84315 2 5.5C2 7.15685 3.34315 8.5 5 8.5C6.65685 8.5 8 7.15685 8 5.5C8 3.84315 6.65685 2.5 5 2.5ZM1 5.5C1 3.29086 2.79086 1.5 5 1.5C7.20914 1.5 9 3.29086 9 5.5C9 6.42436 8.68646 7.27548 8.15993 7.95282L10.8536 10.6464C11.0488 10.8417 11.0488 11.1583 10.8536 11.3536C10.6583 11.5488 10.3417 11.5488 10.1464 11.3536L7.45282 8.65993C6.77548 9.18646 5.92436 9.5 5 9.5C2.79086 9.5 1 7.70914 1 5.5Z" fill="#666666"/>
</g>
</svg>
