<svg width="195" height="53" viewBox="0 0 195 53" fill="none" xmlns="http://www.w3.org/2000/svg">
<path fill-rule="evenodd" clip-rule="evenodd" d="M27.6863 14.8591C25.8035 14.1195 23.7666 13.8006 21.7332 13.927C19.6997 14.0534 17.7241 14.6217 15.9592 15.5881L14.1786 16.5631L12.1225 13.1856L13.9031 12.2106C16.2142 10.9451 18.8013 10.2008 21.4642 10.0353C24.1271 9.86979 26.7945 10.2875 29.26 11.256C31.7254 12.2245 33.9229 13.718 35.6825 15.6208C37.4419 17.5236 38.7164 19.7848 39.4073 22.2295C40.0978 24.6741 40.1864 27.2367 39.6657 29.719C39.145 32.2013 38.0293 34.5367 36.4047 36.5446C34.7801 38.5525 32.6904 40.1791 30.297 41.2984C27.9036 42.4177 24.8164 43 22.6021 43C20.3877 43 19.0947 42.685 17.3967 42.0181C15.7465 41.3698 14.247 40.4197 12.9839 39.2218C11.7209 38.0239 10.719 36.6016 10.0354 35.0365C9.35185 33.4715 9 31.794 9 30.1C9 28.406 9.35185 26.7285 10.0354 25.1634C10.719 23.5983 11.7209 22.1762 12.9839 20.9783C14.247 19.7804 15.7465 18.8302 17.3967 18.182C19.047 17.5337 20.8158 17.2 22.602 17.2C24.3882 17.2 26.157 17.5337 27.8072 18.182C29.4575 18.8302 30.957 19.7804 32.22 20.9783C33.4831 22.1762 34.4849 23.5983 35.1685 25.1634C35.4627 25.8366 35.6952 26.5306 35.8651 27.2378C35.9479 25.8953 35.804 24.545 35.4352 23.2389C34.9075 21.372 33.9344 19.6453 32.5908 18.1922C31.2471 16.7392 29.569 15.5987 27.6863 14.8591ZM14.3894 34.6093C14.6226 30.4166 18.2811 27.0851 22.7601 27.0851C27.066 27.0851 30.6136 30.164 31.0887 34.1272C31.1894 33.9363 31.283 33.7419 31.3694 33.5441C31.8463 32.4522 32.0917 31.2819 32.0917 30.1C32.0917 28.9181 31.8463 27.7478 31.3694 26.6558C30.8925 25.5639 30.1935 24.5718 29.3123 23.736C28.4311 22.9003 27.3849 22.2374 26.2336 21.7851C25.0822 21.3328 23.8482 21.1 22.602 21.1C21.3558 21.1 20.1218 21.3328 18.9704 21.7851C17.8191 22.2374 16.7729 22.9003 15.8917 23.736C15.0105 24.5718 14.3115 25.5639 13.8346 26.6558C13.3577 27.7478 13.1122 28.9181 13.1122 30.1C13.1122 31.2819 13.3577 32.4522 13.8346 33.5441C13.9949 33.9112 14.1803 34.267 14.3894 34.6093ZM27.0305 35.035C27.0305 37.2718 25.1186 39.085 22.7601 39.085C20.4017 39.085 18.4898 37.2718 18.4898 35.035C18.4898 32.7983 20.4017 30.9851 22.7601 30.9851C25.1186 30.9851 27.0305 32.7983 27.0305 35.035Z" fill="#006AFF"/>
<path d="M54.1292 13.7255H61.1988L66.7343 24.6815H66.9644L72.5 13.7255H79.5696L69.9943 31.163V39.9073H63.7045V31.163L54.1292 13.7255ZM86.8533 40.2781C84.7908 40.2781 83.0181 39.8562 81.5351 39.0125C80.0607 38.1602 78.9229 36.9755 78.1218 35.4585C77.3291 33.9329 76.9328 32.1645 76.9328 30.1531C76.9328 28.1332 77.3291 26.3647 78.1218 24.8477C78.9229 23.3221 80.0607 22.1375 81.5351 21.2937C83.0181 20.4414 84.7908 20.0153 86.8533 20.0153C88.9158 20.0153 90.6843 20.4414 92.1587 21.2937C93.6416 22.1375 94.7794 23.3221 95.572 24.8477C96.3732 26.3647 96.7737 28.1332 96.7737 30.1531C96.7737 32.1645 96.3732 33.9329 95.572 35.4585C94.7794 36.9755 93.6416 38.1602 92.1587 39.0125C90.6843 39.8562 88.9158 40.2781 86.8533 40.2781ZM86.8916 35.5608C87.6416 35.5608 88.2766 35.3306 88.7965 34.8704C89.3164 34.4102 89.7127 33.771 89.9854 32.9528C90.2666 32.1346 90.4073 31.1886 90.4073 30.1147C90.4073 29.0238 90.2666 28.0693 89.9854 27.2511C89.7127 26.4329 89.3164 25.7937 88.7965 25.3335C88.2766 24.8733 87.6416 24.6431 86.8916 24.6431C86.1161 24.6431 85.4598 24.8733 84.9229 25.3335C84.3945 25.7937 83.9897 26.4329 83.7084 27.2511C83.4357 28.0693 83.2993 29.0238 83.2993 30.1147C83.2993 31.1886 83.4357 32.1346 83.7084 32.9528C83.9897 33.771 84.3945 34.4102 84.9229 34.8704C85.4598 35.3306 86.1161 35.5608 86.8916 35.5608ZM112.645 31.4315V20.271H118.884V39.9073H112.926V36.2511H112.722C112.287 37.4528 111.546 38.4073 110.497 39.1147C109.458 39.8136 108.201 40.163 106.726 40.163C105.388 40.163 104.212 39.8562 103.198 39.2426C102.184 38.6289 101.395 37.7724 100.833 36.673C100.27 35.565 99.9847 34.2696 99.9762 32.7866V20.271H106.228V31.5593C106.236 32.6247 106.517 33.4642 107.071 34.0778C107.625 34.6914 108.38 34.9983 109.334 34.9983C109.956 34.9983 110.515 34.8619 111.009 34.5892C111.512 34.3079 111.908 33.9031 112.198 33.3747C112.496 32.8377 112.645 32.19 112.645 31.4315ZM122.863 13.7255H130.7L137.347 29.9358H137.654L144.302 13.7255H152.138V39.9073H145.977V23.825H145.759L139.469 39.7412H135.532L129.242 23.7355H129.025V39.9073H122.863V13.7255ZM165.265 40.2781C163.211 40.2781 161.438 39.8733 159.946 39.0636C158.463 38.2454 157.321 37.0821 156.52 35.5735C155.728 34.0565 155.331 32.2539 155.331 30.1659C155.331 28.1375 155.732 26.3647 156.533 24.8477C157.334 23.3221 158.463 22.1375 159.921 21.2937C161.378 20.4414 163.095 20.0153 165.073 20.0153C166.47 20.0153 167.749 20.2326 168.908 20.6673C170.067 21.1019 171.068 21.7454 171.912 22.5977C172.756 23.45 173.412 24.5025 173.881 25.7554C174.35 26.9997 174.584 28.4272 174.584 30.038V31.5977H157.517V27.967H168.767C168.759 27.3022 168.601 26.7099 168.294 26.19C167.988 25.6701 167.566 25.2653 167.029 24.9755C166.5 24.6772 165.891 24.5281 165.201 24.5281C164.502 24.5281 163.875 24.6858 163.321 25.0011C162.767 25.3079 162.328 25.7298 162.005 26.2667C161.681 26.7951 161.51 27.396 161.493 28.0693V31.7639C161.493 32.565 161.651 33.2681 161.966 33.8733C162.282 34.4698 162.729 34.9343 163.309 35.2667C163.888 35.5991 164.578 35.7653 165.38 35.7653C165.934 35.7653 166.436 35.6886 166.888 35.5352C167.34 35.3818 167.728 35.1559 168.051 34.8576C168.375 34.5593 168.618 34.1929 168.78 33.7582L174.52 33.9244C174.282 35.2113 173.757 36.3321 172.948 37.2866C172.147 38.2326 171.094 38.9698 169.79 39.4983C168.486 40.0181 166.978 40.2781 165.265 40.2781Z" fill="black"/>
</svg>
